<svg xmlns="http://www.w3.org/2000/svg" xmlns:xlink="http://www.w3.org/1999/xlink" version="1.1" x="0px" y="0px" viewBox="0 0 100 100" style="enable-background:new 0 0 100 100;" xml:space="preserve"><style type="text/css">
	.st0{fill-rule:evenodd;clip-rule:evenodd;}
</style><path class="st0" d="M82.1,28H16.9c-4.2,0-7.5-3.4-7.5-7.5s3.4-7.5,7.5-7.5h65.1c4.2,0,7.5,3.4,7.5,7.5S86.2,28,82.1,28z M16.9,43  H62c4.2,0,7.5,3.4,7.5,7.5S66.2,58,62,58H16.9c-4.2,0-7.5-3.4-7.5-7.5S12.8,43,16.9,43z M16.9,73h65.1c4.2,0,7.5,3.4,7.5,7.5  s-3.4,7.5-7.5,7.5H16.9c-4.2,0-7.5-3.4-7.5-7.5S12.8,73,16.9,73z"></path></svg>